<mxfile host="app.diagrams.net" modified="2024-06-06T04:28:51.023Z" agent="Mozilla/5.0 (Windows NT 10.0; Win64; x64) AppleWebKit/537.36 (KHTML, like Gecko) Chrome/125.0.0.0 Safari/537.36" etag="iA3ODXvoVAC_YlMMpSs6" version="24.4.14" type="github">
  <diagram name="第 1 页" id="JfcvyipnLNr43_exvYc2">
    <mxGraphModel dx="794" dy="458" grid="1" gridSize="10" guides="1" tooltips="1" connect="1" arrows="1" fold="1" page="1" pageScale="1" pageWidth="827" pageHeight="1169" background="none" math="1" shadow="0">
      <root>
        <mxCell id="0" />
        <mxCell id="1" parent="0" />
        <mxCell id="XnLdAAL9Li0qIDXgQTru-2" value="0&lt;div&gt;&lt;font color=&quot;#cccccc&quot;&gt;ob0000&lt;/font&gt;&lt;/div&gt;&lt;div&gt;&lt;font color=&quot;#cccccc&quot;&gt;$&lt;/font&gt;&lt;span style=&quot;color: rgb(204, 204, 204); background-color: initial;&quot;&gt;\sum A(0,0]&lt;/span&gt;&lt;span style=&quot;color: rgb(204, 204, 204); background-color: initial;&quot;&gt;$&lt;/span&gt;&lt;/div&gt;" style="rounded=0;whiteSpace=wrap;html=1;" vertex="1" parent="1">
          <mxGeometry x="340" y="80" width="100" height="70" as="geometry" />
        </mxCell>
      </root>
    </mxGraphModel>
  </diagram>
</mxfile>
